<svg width="16" height="16" viewBox="0 0 16 16" fill="none" xmlns="http://www.w3.org/2000/svg">
<g clip-path="url(#clip0_760_40)">
<path d="M0.615723 1.03235V14.9677H15.385" stroke="#5F6368" stroke-width="2" stroke-miterlimit="10" stroke-linecap="round" stroke-linejoin="round"/>
<path d="M9.68115 9.50458L12.9427 6.24612V6.24304" stroke="#5F6368" stroke-width="2" stroke-miterlimit="10" stroke-linecap="round" stroke-linejoin="round"/>
<path d="M13.5952 6.51571C14.105 6.51571 14.5183 6.10245 14.5183 5.59263C14.5183 5.08285 14.105 4.66956 13.5952 4.66956C13.0854 4.66956 12.6721 5.08285 12.6721 5.59263C12.6721 6.10245 13.0854 6.51571 13.5952 6.51571Z" stroke="#5F6368" stroke-width="2" stroke-miterlimit="10" stroke-linecap="round" stroke-linejoin="round"/>
<path d="M3.99652 8.13544L0.61499 11.517M8.23652 9.67083L5.43652 7.96314M5.57314 7.48314C5.57314 7.73544 5.46852 7.96929 5.30237 8.13544C5.21683 8.22129 5.11517 8.28941 5.00323 8.33587C4.89129 8.38237 4.77126 8.40627 4.65006 8.40627C4.52886 8.40627 4.40886 8.38237 4.29692 8.33587C4.18498 8.28941 4.08332 8.22129 3.99775 8.13544C3.9116 8.05012 3.84329 7.94849 3.7968 7.83649C3.75034 7.72449 3.72658 7.60437 3.72698 7.48314C3.72698 6.97237 4.13929 6.56006 4.65006 6.56006C5.15775 6.56006 5.57314 6.97237 5.57314 7.48314ZM9.94575 10.1508C9.94575 10.6616 9.53037 11.0739 9.02268 11.0739C8.84108 11.0743 8.66338 11.0211 8.51191 10.921C8.36043 10.8207 8.24191 10.6781 8.17123 10.5107C8.10058 10.3434 8.08089 10.159 8.11468 9.98055C8.14846 9.80212 8.23422 9.63763 8.36114 9.50775C8.44674 9.41932 8.54917 9.34895 8.66243 9.3008C8.77569 9.25264 8.89745 9.22769 9.02049 9.22741C9.14357 9.2271 9.26542 9.2515 9.37889 9.29913C9.49237 9.34677 9.59514 9.41664 9.68114 9.50467C9.84422 9.67083 9.94575 9.89852 9.94575 10.1508Z" stroke="#5F6368" stroke-width="2" stroke-miterlimit="10" stroke-linecap="round" stroke-linejoin="round"/>
</g>
<defs>
<clipPath id="clip0_760_40">
<rect width="16" height="16" fill="white"/>
</clipPath>
</defs>
</svg>
