<svg width="16" height="16" viewBox="0 0 16 16" fill="none" xmlns="http://www.w3.org/2000/svg">
<g clip-path="url(#clip0_760_45)">
<path d="M0.102051 2.22305C-0.0332525 2.73194 -0.0323692 3.26745 0.104612 3.7759C0.241594 4.28434 0.509861 4.74786 0.882525 5.11999C1.25519 5.49212 1.71915 5.7598 2.22792 5.89618C2.73668 6.03256 3.27237 6.03286 3.78129 5.89705L10.1244 12.149C9.9926 12.5967 9.96696 13.069 10.0495 13.5283C10.1321 13.9876 10.3207 14.4214 10.6002 14.7952C10.8797 15.1689 11.2425 15.4724 11.6599 15.6816C12.0772 15.8907 12.5376 15.9998 13.0044 16C13.4345 15.9995 13.8594 15.9064 14.2504 15.7273C14.6414 15.5482 14.9893 15.2872 15.2706 14.9619C15.5518 14.6367 15.7598 14.2548 15.8806 13.8421C16.0013 13.4295 16.0319 12.9957 15.9703 12.5702C15.9086 12.1447 15.7562 11.7374 15.5234 11.3759C15.2906 11.0144 14.9827 10.7072 14.6207 10.475C14.2587 10.2429 13.8511 10.0912 13.4253 10.0303C12.9996 9.9694 12.5657 10.0007 12.1531 10.122L5.899 3.78105C6.03552 3.27211 6.03572 2.73622 5.89959 2.22718C5.76345 1.71813 5.49577 1.25384 5.12341 0.880897C4.75105 0.507953 4.28711 0.23948 3.77816 0.102423C3.2692 -0.0346336 2.73314 -0.0354522 2.22377 0.10005L4.36549 2.24205L4.00136 4.00005L2.24377 4.36405L0.102051 2.22305ZM13.4766 11.242L14.0047 11.268L14.2918 11.713L14.737 12L14.763 12.529L15.0051 13L14.763 13.471L14.737 14L14.2918 14.287L14.0047 14.732L13.4756 14.758L13.0044 15L12.5332 14.758L12.0041 14.732L11.717 14.287L11.2718 14L11.2458 13.471L11.0037 13L11.2458 12.529L11.2718 12L11.717 11.713L12.0041 11.268L12.5332 11.242L13.0044 11L13.4756 11.242H13.4766Z" fill="#5F6368"/>
</g>
<defs>
<clipPath id="clip0_760_45">
<rect width="16" height="16" fill="white"/>
</clipPath>
</defs>
</svg>
